<svg width="24" height="24" viewBox="0 0 24 24" fill="none" xmlns="http://www.w3.org/2000/svg">
<path d="M11.275 0.167998C11.3578 -0.055862 11.6744 -0.055862 11.7573 0.167998L14.7165 8.1641C14.7425 8.23448 14.798 8.28997 14.8684 8.31601L22.8645 11.2752C23.0883 11.358 23.0883 11.6747 22.8645 11.7575L14.8684 14.7167C14.798 14.7427 14.7425 14.7982 14.7165 14.8686L11.7573 22.8647C11.6744 23.0886 11.3578 23.0886 11.275 22.8647L8.31577 14.8686C8.28972 14.7982 8.23423 14.7427 8.16386 14.7167L0.167754 11.7575C-0.0561062 11.6747 -0.0561062 11.358 0.167754 11.2752L8.16386 8.31601C8.23423 8.28997 8.28972 8.23448 8.31577 8.1641L11.275 0.167998Z" fill="#1987A6"/>
</svg>
