<svg width="14" height="30" viewBox="0 0 14 30" fill="none" xmlns="http://www.w3.org/2000/svg">
<path d="M1.94864 0.0442886C1.57414 0.249783 1.31076 0.562134 0.973301 1.19094C0.277806 2.49788 -0.0390758 3.98566 0.00619307 5.76523C0.0267698 6.70639 0.0926155 7.14615 0.310729 7.82839C0.602919 8.73667 0.948609 9.43946 1.52064 10.2984C2.6071 11.9259 3.82936 12.9205 6.57841 14.4247C8.31921 15.3741 9.59085 16.3276 10.3398 17.24C10.846 17.8565 11.1876 18.3949 11.5827 19.2045C12.1094 20.2854 12.451 21.9705 12.4058 23.298C12.3975 23.6514 12.3769 24.0213 12.3605 24.124C12.2946 24.5885 12.2082 25.0857 12.1753 25.1638C12.1547 25.2132 12.093 25.431 12.0313 25.6447C11.8749 26.2077 11.7103 26.6105 11.3481 27.3133C11.0148 27.9668 10.9736 28.0366 10.739 28.3901C10.6156 28.575 10.5909 28.6531 10.5785 28.8874C10.5497 29.3888 10.7966 29.6724 11.2699 29.6724C11.5251 29.6724 11.665 29.6025 11.8502 29.3888C12.1794 29.0025 12.3564 28.7148 12.8461 27.7818C13.949 25.6611 14.2371 22.9157 13.6239 20.343C13.1753 18.4688 11.9407 16.3975 10.5909 15.259C9.71019 14.5152 8.46736 13.7055 7.31917 13.1301C6.95291 12.9452 5.93642 12.3657 5.67303 12.1931C3.48778 10.7423 2.26964 9.13122 1.68114 6.92422C1.52476 6.34472 1.47949 5.76934 1.52064 4.90216C1.54533 4.33911 1.57414 4.16649 1.71406 3.61577C1.98979 2.55131 2.31902 1.80331 2.76759 1.23204C2.98159 0.964901 3.03921 0.858044 3.03921 0.751186C3.03921 0.504595 2.86636 0.245672 2.57829 0.0689487C2.45071 -0.00914001 2.07622 -0.0255795 1.94864 0.0442886Z" fill="black"/>
<path d="M11.3521 0.0689583C11.0435 0.270342 10.8994 0.488165 10.8994 0.751197C10.8994 0.858053 10.9653 0.97313 11.1875 1.26904C11.6566 1.88552 11.9324 2.51844 12.2287 3.65688C12.3892 4.28158 12.3933 4.31035 12.4139 5.15698C12.4344 6.15568 12.4097 6.35706 12.1752 7.19137C11.8213 8.43666 11.1175 9.65729 10.1998 10.619C9.66069 11.1862 8.62362 11.9917 7.87052 12.4356C7.80055 12.4767 7.81702 12.4931 8.01867 12.5959C8.2409 12.7068 9.02693 13.1507 9.19566 13.2616C9.26973 13.311 9.31912 13.2863 9.70596 13.0233C11.4838 11.8232 12.8048 10.134 13.525 8.15719C13.8419 7.28178 13.9654 6.52557 13.9571 5.46522C13.953 4.15006 13.7472 3.00341 13.3316 1.98005C12.9118 0.944361 12.5085 0.331989 12.0805 0.0895071C11.8871 -0.0214596 11.5085 -0.0296793 11.3521 0.0689583Z" fill="black"/>
<path d="M3.75109 1.93487C3.29017 2.16092 3.15436 2.67465 3.46301 3.0281C3.7017 3.29935 3.5412 3.28702 6.98987 3.28702C10.4303 3.28702 10.278 3.29935 10.5126 3.03221C10.7513 2.76096 10.7307 2.37874 10.4591 2.1116C10.1834 1.83624 10.348 1.84857 6.98164 1.84857C3.95686 1.84857 3.92393 1.84857 3.75109 1.93487Z" fill="black"/>
<path d="M2.76345 4.92682C2.48772 5.12821 2.42188 5.23917 2.42188 5.51454C2.42188 5.81045 2.53299 6.04882 2.7223 6.1639C2.84987 6.24198 2.95687 6.24609 6.9858 6.24609C11.1094 6.24609 11.1176 6.24609 11.2575 6.15979C11.6197 5.93374 11.6691 5.32137 11.344 5.02957C11.0888 4.79531 11.3357 4.80764 6.95699 4.80764H2.92806L2.76345 4.92682Z" fill="black"/>
<path d="M3.73896 7.83254C3.66077 7.86542 3.55377 7.93529 3.50027 7.98461C3.38504 8.09146 3.24512 8.35039 3.24512 8.45313C3.24512 8.73261 3.47558 9.08605 3.72661 9.1888C3.83361 9.23401 4.45503 9.24634 6.99832 9.24634C10.5334 9.24634 10.2988 9.26689 10.5581 8.92988C10.7968 8.60931 10.768 8.25175 10.4799 7.98461C10.2412 7.76267 10.3318 7.76678 6.98186 7.76678C4.30688 7.77089 3.86242 7.77911 3.73896 7.83254Z" fill="black"/>
<path d="M5.17908 10.7465C5.15027 10.7794 5.13793 10.8328 5.15027 10.8657C5.19966 10.9931 6.83757 12 6.98984 12C7.14211 12 8.78002 10.9931 8.8294 10.8657C8.84175 10.8328 8.8294 10.7794 8.80059 10.7465C8.7224 10.6561 5.25727 10.6561 5.17908 10.7465Z" fill="black"/>
<path d="M4.08411 14.6795C3.10054 15.407 2.69724 15.8057 2.05936 16.6564C1.01406 18.0538 0.384412 19.5908 0.0963372 21.4526C0.00579948 22.0444 -0.0312387 23.4459 0.0304916 24.1076C0.145721 25.3652 0.668371 27.1736 1.14164 27.9462C1.20337 28.049 1.2939 28.2134 1.34329 28.3161C1.39267 28.4189 1.51202 28.6161 1.60667 28.7559C2.19928 29.6148 2.26513 29.6724 2.68078 29.6724C3.09643 29.6724 3.33512 29.4669 3.38862 29.06C3.42154 28.8052 3.37216 28.6613 3.10466 28.2421C2.73839 27.6585 2.10051 26.3516 2.00998 25.994C1.99351 25.9242 1.91532 25.6488 1.83713 25.3775C1.75482 25.1063 1.6684 24.6994 1.64371 24.4734C1.6149 24.2473 1.57375 23.9843 1.55317 23.8898C1.4544 23.4295 1.55317 22.0321 1.76305 21.0211C2.0429 19.6607 2.74251 18.2469 3.67669 17.1578C4.15819 16.5989 4.93599 15.9331 5.68498 15.4399C5.97717 15.2467 5.99775 15.2221 5.9319 15.1727C5.86194 15.1234 4.7508 14.4658 4.59853 14.3795C4.54915 14.3549 4.42157 14.4288 4.08411 14.6795Z" fill="black"/>
<path d="M6.42192 16.0687C5.80462 16.4181 5.1832 16.8332 5.15027 16.9154C5.13793 16.9482 5.15027 17.0017 5.17908 17.0345C5.22435 17.088 5.48362 17.0962 6.98984 17.0962C8.49606 17.0962 8.75532 17.088 8.80059 17.0345C8.8294 17.0017 8.84175 16.9482 8.8294 16.9154C8.78002 16.788 7.14211 15.781 6.98984 15.781C6.95691 15.781 6.70176 15.9084 6.42192 16.0687Z" fill="black"/>
<path d="M3.71838 18.5921C3.47558 18.699 3.24512 19.0524 3.24512 19.3278C3.24512 19.4306 3.38504 19.6895 3.50027 19.7963C3.73896 20.0183 3.65254 20.0142 6.99009 20.0142C10.3276 20.0142 10.2412 20.0183 10.4799 19.7963C10.768 19.5292 10.7968 19.1716 10.5581 18.8511C10.2988 18.5141 10.5375 18.5346 6.99009 18.5346C4.47972 18.5387 3.81715 18.5469 3.71838 18.5921Z" fill="black"/>
<path d="M2.7223 21.6169C2.53299 21.732 2.42188 21.9703 2.42188 22.2662C2.42188 22.5416 2.48772 22.6526 2.76345 22.854L2.92806 22.9731H6.95699C10.5867 22.9731 10.9983 22.9649 11.1176 22.9074C11.4221 22.7512 11.558 22.5457 11.558 22.2334C11.558 21.9703 11.4427 21.7361 11.2575 21.621C11.1176 21.5347 11.1094 21.5347 6.9858 21.5347C2.95687 21.5347 2.84987 21.5388 2.7223 21.6169Z" fill="black"/>
<path d="M3.71792 24.5516C3.54096 24.6256 3.3352 24.8763 3.30227 25.053C3.24466 25.3613 3.43396 25.6942 3.75085 25.8462C3.92781 25.9325 3.97308 25.9325 6.9814 25.9325C10.3478 25.9325 10.1831 25.9449 10.4589 25.6695C10.7305 25.4024 10.7511 25.0201 10.5124 24.7489C10.2778 24.4817 10.4342 24.4941 6.9814 24.4941C4.47926 24.4982 3.81669 24.5064 3.71792 24.5516Z" fill="black"/>
</svg>
