<svg width="39" height="39" viewBox="0 0 39 39" fill="none" xmlns="http://www.w3.org/2000/svg">
<path d="M18.7914 0.279915C18.9295 -0.0931856 19.4572 -0.0931848 19.5953 0.279916L24.5273 13.6068C24.5707 13.7241 24.6632 13.8165 24.7805 13.8599L38.1073 18.7919C38.4804 18.93 38.4804 19.4577 38.1073 19.5958L24.7805 24.5278C24.6632 24.5712 24.5707 24.6636 24.5273 24.7809L19.5953 38.1078C19.4572 38.4809 18.9295 38.4809 18.7914 38.1078L13.8595 24.7809C13.816 24.6636 13.7236 24.5712 13.6063 24.5278L0.279427 19.5958C-0.0936739 19.4577 -0.0936731 18.93 0.279428 18.7919L13.6063 13.8599C13.7236 13.8165 13.816 13.7241 13.8595 13.6068L18.7914 0.279915Z" fill="#ACBBBF"/>
</svg>
