<svg width="51" height="51" viewBox="0 0 51 51" fill="none" xmlns="http://www.w3.org/2000/svg">
<g filter="url(#filter0_d_551_6631)">
<path d="M24.935 6.42249C25.0731 6.04939 25.6008 6.04939 25.7388 6.42249L30.6708 19.7493C30.7142 19.8666 30.8067 19.9591 30.924 20.0025L44.2508 24.9345C44.6239 25.0726 44.6239 25.6003 44.2508 25.7384L30.924 30.6703C30.8067 30.7137 30.7142 30.8062 30.6708 30.9235L25.7388 44.2504C25.6008 44.6235 25.0731 44.6235 24.935 44.2504L20.003 30.9235C19.9596 30.8062 19.8671 30.7137 19.7498 30.6703L6.42298 25.7384C6.04988 25.6003 6.04988 25.0726 6.42298 24.9345L19.7498 20.0025C19.8671 19.9591 19.9596 19.8666 20.003 19.7493L24.935 6.42249Z" fill="#1987A6"/>
<path d="M24.4697 6.0708C24.8718 5.35698 25.9723 5.40821 26.2744 6.22412L31.1836 19.4888L44.4492 24.3989C45.3196 24.7212 45.3196 25.9517 44.4492 26.2739L31.1836 31.1831L26.2744 44.4487C25.9522 45.3191 24.7217 45.3191 24.3994 44.4487L19.4893 31.1831L6.22461 26.2739C5.35424 25.9517 5.35424 24.7212 6.22461 24.3989L19.4893 19.4888L24.3994 6.22412L24.4697 6.0708Z" stroke="#E6F9FF" stroke-width="1.14286"/>
</g>
<defs>
<filter id="filter0_d_551_6631" x="0" y="0" width="50.6738" height="50.6729" filterUnits="userSpaceOnUse" color-interpolation-filters="sRGB">
<feFlood flood-opacity="0" result="BackgroundImageFix"/>
<feColorMatrix in="SourceAlpha" type="matrix" values="0 0 0 0 0 0 0 0 0 0 0 0 0 0 0 0 0 0 127 0" result="hardAlpha"/>
<feOffset/>
<feGaussianBlur stdDeviation="2.5"/>
<feColorMatrix type="matrix" values="0 0 0 0 0 0 0 0 0 0.626667 0 0 0 0 0.8 0 0 0 1 0"/>
<feBlend mode="normal" in2="BackgroundImageFix" result="effect1_dropShadow_551_6631"/>
<feBlend mode="normal" in="SourceGraphic" in2="effect1_dropShadow_551_6631" result="shape"/>
</filter>
</defs>
</svg>
