<svg width="50" height="67" viewBox="0 0 50 67" fill="none" xmlns="http://www.w3.org/2000/svg">
<path fill-rule="evenodd" clip-rule="evenodd" d="M8.33333 66.6667H41.6667C46.269 66.6667 50 62.9357 50 58.3333V19.5833H31.1458V0H8.33333C3.73096 0 0 3.73096 0 8.33333V58.3333C0 62.9357 3.73096 66.6667 8.33333 66.6667Z" fill="#92CAD9"/>
<path d="M50 19.5833L31.1458 0V19.5833H50Z" fill="#D3E6EB"/>
<circle cx="22" cy="43" r="13.0667" stroke="#F2FCFF" stroke-width="1.86667"/>
<path d="M29.5648 41.7308C30.7624 42.5027 30.7624 44.254 29.5648 45.0258L19.8895 51.2614C18.5852 52.102 16.8677 51.1656 16.8677 49.6139V37.1427C16.8677 35.591 18.5852 34.6547 19.8895 35.4953L29.5648 41.7308Z" fill="#F2FCFF"/>
</svg>
