<svg width="50" height="67" viewBox="0 0 50 67" fill="none" xmlns="http://www.w3.org/2000/svg">
<path fill-rule="evenodd" clip-rule="evenodd" d="M8.33333 66.6667H41.6667C46.269 66.6667 50 62.9357 50 58.3333V19.5833H31.1458V0H8.33333C3.73096 0 0 3.73096 0 8.33333V58.3333C0 62.9357 3.73096 66.6667 8.33333 66.6667Z" fill="#F2FCFF"/>
<path d="M50 19.5833L31.1458 0V19.5833H50Z" fill="#D3E6EB"/>
<circle cx="24" cy="41" r="13.0667" stroke="#92CAD9" stroke-width="1.86667"/>
<path d="M31.5648 39.7308C32.7624 40.5027 32.7624 42.254 31.5648 43.0258L21.8895 49.2614C20.5852 50.102 18.8677 49.1656 18.8677 47.6139V35.1427C18.8677 33.591 20.5852 32.6547 21.8895 33.4953L31.5648 39.7308Z" fill="#92CAD9"/>
</svg>
